<?xml version="1.0" encoding="UTF-8" standalone="no"?>
<svg
   xmlns:dc="http://purl.org/dc/elements/1.1/"
   xmlns:cc="http://creativecommons.org/ns#"
   xmlns:rdf="http://www.w3.org/1999/02/22-rdf-syntax-ns#"
   xmlns:svg="http://www.w3.org/2000/svg"
   xmlns="http://www.w3.org/2000/svg"
   xmlns:sodipodi="http://sodipodi.sourceforge.net/DTD/sodipodi-0.dtd"
   xmlns:inkscape="http://www.inkscape.org/namespaces/inkscape"
   width="297.51364"
   height="129.17535"
   viewBox="0 0 297.51364 129.17535"
   version="1.1"
   preserveAspectRatio="xMidYMid"
   id="svg825"
   sodipodi:docname="gitgitgadget-explanation.svg"
   inkscape:version="0.92.3 (2405546, 2018-03-11)"
   inkscape:export-filename="C:\git-sdk-64\usr\src\git\3rdparty\gitgitgadget.github.io\images\gitgitgadget-explanation.png"
   inkscape:export-xdpi="247.81"
   inkscape:export-ydpi="247.81">
  <metadata
     id="metadata831">
    <rdf:RDF>
      <cc:Work
         rdf:about="">
        <dc:format>image/svg+xml</dc:format>
        <dc:type
           rdf:resource="http://purl.org/dc/dcmitype/StillImage" />
        <dc:title></dc:title>
      </cc:Work>
    </rdf:RDF>
  </metadata>
  <defs
     id="defs829" />
  <sodipodi:namedview
     pagecolor="#ffffff"
     bordercolor="#666666"
     borderopacity="1"
     objecttolerance="10"
     gridtolerance="10"
     guidetolerance="10"
     inkscape:pageopacity="0"
     inkscape:pageshadow="2"
     inkscape:window-width="2330"
     inkscape:window-height="1226"
     id="namedview827"
     showgrid="false"
     inkscape:zoom="5.5795761"
     inkscape:cx="148.75682"
     inkscape:cy="61.587679"
     inkscape:window-x="196"
     inkscape:window-y="196"
     inkscape:window-maximized="0"
     inkscape:current-layer="svg825"
     fit-margin-top="0"
     fit-margin-left="0"
     fit-margin-right="0"
     fit-margin-bottom="0" />
  <path
     style="fill:#de4c36"
     inkscape:connector-curvature="0"
     id="path821"
     d="M 104.52837,71.161547 58.012347,24.649036 c -2.676895,-2.679233 -7.021881,-2.679233 -9.702283,0 l -9.659032,9.659031 12.252932,12.252932 c 2.847561,-0.962046 6.112438,-0.316786 8.382538,1.953315 2.280622,2.284128 2.921206,5.577059 1.935781,8.433972 l 11.808731,11.808731 c 2.856913,-0.984256 6.153351,-0.347178 8.435141,1.938119 3.188896,3.187726 3.188896,8.354484 0,11.544548 -3.190063,3.190064 -8.356821,3.190064 -11.548054,0 -2.398685,-2.401023 -2.991343,-5.924238 -1.776804,-8.879343 l -11.012676,-11.012675 -0.0012,28.980602 c 0.777352,0.385754 1.511452,0.898923 2.15905,1.544183 3.188896,3.187726 3.188896,8.354489 0,11.546889 -3.190063,3.18889 -8.359159,3.18889 -11.544547,0 -3.188895,-3.1924 -3.188895,-8.359163 0,-11.546889 0.787872,-0.786703 1.699652,-1.381699 2.672219,-1.78148 V 61.840341 C 49.441576,61.442898 48.530965,60.85141 47.741924,60.058862 45.325704,57.646149 44.744736,54.100725 45.982654,51.13393 L 33.905096,39.054003 2.0103015,70.94646 c -2.680402,2.681571 -2.680402,7.026557 0,9.70579 L 48.52632,127.16593 c 2.678064,2.67924 7.021881,2.67924 9.703452,0 L 104.52837,80.868506 c 2.67923,-2.680402 2.67923,-7.027726 0,-9.706959" />
  <g
     id="g979"
     transform="matrix(0.78170945,0,0,0.78170945,111.81208,0.53768057)">
    <path
       id="path821-3-3"
       d="m 203.7793,97.302734 -8.5918,8.523436 c -1.3379,1.3379 -2.90161,2.44769 -4.58789,3.32227 0.15676,1.24051 0.0464,2.50782 -0.36523,3.70117 l 11.80859,11.80859 c 2.85692,-0.98426 6.15376,-0.34779 8.43555,1.9375 2.15271,2.15194 2.84553,5.20462 2.09179,7.94336 h 10.97071 c 4.77046,0 8.71183,-3.39935 9.56054,-7.91601 z m -43.92969,0.71875 -28.82813,28.826176 c -0.5945,0.59476 -1.05007,1.274 -1.38086,1.99609 1.53041,3.36334 4.90871,5.69531 8.85743,5.69531 h 40.92773 v -16.79883 c -0.97256,-0.39744 -1.88282,-0.9887 -2.67187,-1.78125 -1.60384,-1.6015 -2.38151,-3.70195 -2.37305,-5.80078 -2.60317,-0.98757 -5.04216,-2.52841 -6.99805,-4.66211 z m 26.29101,20.226566 -0.002,16.29101 h 10.7168 c -0.47829,-1.73737 -0.39394,-3.59652 0.29687,-5.27734 z"
       style="fill:#de4c36"
       inkscape:connector-curvature="0" />
    <path
       id="path821-3"
       d="m 138.18164,54.890625 c -4.33007,0 -7.98323,2.751684 -9.3418,6.605469 0.3177,0.617641 0.7324,1.197462 1.25,1.714844 l 46.51563,46.513672 c 2.67806,2.67924 7.02155,2.67924 9.70312,0 l 46.29883,-46.296876 c 0.54012,-0.540357 0.96672,-1.150305 1.28906,-1.798828 -1.31999,-3.924195 -5.0123,-6.738281 -9.39257,-6.738281 h -13.70118 c 1.84442,3.128964 1.43055,7.218859 -1.25781,9.908203 -3.19007,3.190064 -8.35564,3.190064 -11.54687,0 -2.39868,-2.401023 -2.99189,-5.923801 -1.77735,-8.878906 l -1.02929,-1.029297 h -9.98243 l -0.002,18.998047 c 0.77735,0.385754 1.5106,0.897709 2.1582,1.542969 3.1889,3.187726 3.1889,8.354473 0,11.546875 -3.19006,3.188895 -8.35757,3.188895 -11.54296,0 -3.18889,-3.192402 -3.18889,-8.359149 0,-11.546875 0.78788,-0.786703 1.69931,-1.381469 2.67187,-1.78125 V 54.890625 Z"
       style="fill:#de4c36"
       inkscape:connector-curvature="0" />
    <path
       id="path821-2"
       d="m 129.96094,62.294922 c -0.28883,0.923271 -0.44532,1.90485 -0.44532,2.925781 v 22.796875 c 2.1449,-0.04752 4.30606,0.729323 5.94336,2.369141 3.1889,3.187726 3.1889,8.352908 0,11.542971 -1.63828,1.63829 -3.79771,2.42919 -5.94336,2.38476 v 20.39453 c 0,1.42734 0.31221,2.77702 0.85938,3.9961 l 28.14453,-28.14649 c 2.67923,-2.680393 2.67923,-7.027795 0,-9.707028 z"
       style="fill:#de4c36"
       inkscape:connector-curvature="0" />
    <path
       id="rect899"
       d="m 234.03125,65.296875 -26.02148,26.017578 c -2.6804,2.681571 -2.6804,7.025849 0,9.705077 l 25.79101,25.78906 c 0.14773,-0.67644 0.23047,-1.37759 0.23047,-2.09961 z"
       style="fill:#de4c36;fill-opacity:1;stroke:#949494;stroke-width:0.37795275;stroke-linejoin:round;stroke-miterlimit:4;stroke-dasharray:none;stroke-opacity:1"
       inkscape:connector-curvature="0" />
    <g
       transform="matrix(3.3101902,0,0,3.3101902,-187.9704,69.795246)"
       id="g871">
      <path
         inkscape:connector-curvature="0"
         style="opacity:0.9"
         d="m 118.34713,6.9290679 9.97,9.9700001 -1.415,1.414 -9.97,-9.9700001 z m -13.518,0.043 1.414,1.414 -9.899999,9.9000001 -1.414,-1.41 z"
         id="path4518" />
      <path
         inkscape:connector-curvature="0"
         d="m 111.55113,12.585068 c -1.5,0 -3.1,-0.6 -4.2,-1.8 l -12.499999,-12.4000001 1.4,-1.4 12.499999,12.5 c 1.6,1.6000001 4.1,1.6000001 5.7,0 l 12.5,-12.5 1.4,1.4 -12.6,12.5000001 c -1.1,1.1 -2.7,1.7 -4.2,1.7 z"
         id="path4520" />
      <path
         inkscape:connector-curvature="0"
         d="M 125.55113,20.685068 H 97.551131 c -1.7,0 -3,-1.3 -3,-3 V -2.3149321 c 0,-1.7 1.3,-3 3,-3 h 27.999999 c 1.7,0 3,1.3 3,3 V 17.685068 c 0,1.7 -1.3,3 -3,3 z M 97.551131,-3.3149321 c -0.6,0 -1,0.4 -1,1 V 17.685068 c 0,0.6 0.4,1 1,1 h 27.999999 c 0.6,0 1,-0.4 1,-1 V -2.3149321 c 0,-0.6 -0.4,-1 -1,-1 z"
         id="path4522" />
    </g>
    <path
       style="fill:none;fill-opacity:1;stroke-width:3.3101902"
       inkscape:connector-curvature="0"
       d="m 181.28506,111.45421 c -4.96529,0 -10.26159,-1.98611 -13.9028,-5.95834 l -41.37738,-41.046356 4.63427,-4.634267 41.37737,41.377373 c 5.29631,5.29631 13.57178,5.29631 18.86809,0 l 41.37738,-41.377373 4.63426,4.634267 -41.70839,41.377376 c -3.64121,3.64121 -8.93752,5.62732 -13.9028,5.62732 z"
       id="path909" />
  </g>
  <path
     inkscape:connector-curvature="0"
     d="m 108.952,69.804383 h 83.3995 V 63.756884 L 208.07499,75.851882 192.3515,87.94688 V 81.899381 H 108.952 Z"
     style="fill:#2e622b;fill-opacity:1;stroke:none;stroke-width:1.20949996"
     id="path1825"
     sodipodi:nodetypes="cccccccc" />
  <g
     transform="matrix(0.346195,0,0,0.346195,110.88288,2.7436013)"
     id="g1582">
    <g
       style="stroke:#ffffff;stroke-width:20;stroke-miterlimit:4;stroke-dasharray:none;stroke-opacity:1"
       id="g872">
      <path
         sodipodi:nodetypes="cscscscc"
         inkscape:connector-curvature="0"
         id="path834"
         d="m 166.9013,84.175713 c 34.94798,9.970472 44.78622,-18.908058 48.17145,-17.030693 4.34877,2.41172 -1.40096,20.726399 -1.40096,20.726399 0,0 3.65723,-5.12212 4.22534,-3.130318 4.30308,15.086884 -2.40897,18.834569 -6.4716,26.192669 0,0 2.36888,-0.22759 2.84204,0.61155 3.48219,6.17559 -15.67373,18.79983 -29.94139,34.24945 z"
         style="fill:#000000;fill-opacity:1;stroke:#ffffff;stroke-width:20;stroke-linecap:butt;stroke-linejoin:round;stroke-miterlimit:4;stroke-dasharray:none;stroke-opacity:1" />
      <path
         style="fill:#000000;fill-opacity:1;stroke:#ffffff;stroke-width:20;stroke-linecap:butt;stroke-linejoin:round;stroke-miterlimit:4;stroke-dasharray:none;stroke-opacity:1"
         d="M 97.873989,84.175713 C 52.983936,93.710651 52.716897,65.504662 49.70254,67.14502 c -4.368132,2.377058 1.400963,20.726399 1.400963,20.726399 0,0 -3.657232,-5.12212 -4.22534,-3.130318 -4.30308,15.086884 2.408971,18.834569 6.471593,26.192669 0,0 -2.368874,-0.22759 -2.842038,0.61155 -3.482186,6.17559 15.673727,18.79983 29.94139,34.24945 z"
         id="path836"
         inkscape:connector-curvature="0"
         sodipodi:nodetypes="cscscscc" />
      <g
         transform="matrix(0.8203125,0,0,0.81359692,173.60509,63.991126)"
         id="g860"
         style="stroke:#ffffff;stroke-width:24.48136711;stroke-miterlimit:4;stroke-dasharray:none;stroke-opacity:1">
        <path
           style="fill:#a5a5a5;fill-opacity:1;stroke:#ffffff;stroke-width:24.48136711;stroke-linecap:butt;stroke-linejoin:round;stroke-miterlimit:4;stroke-dasharray:none;stroke-opacity:1"
           d="m -125,26 c 47.621765,-7.115684 95.940701,-7.25966 145,0 L 0,6 -5,-14 -10,-49 c -43.119878,-35.839586 -42.556997,-36.564381 -85,0 l -5,35 -5,20 z"
           id="path852"
           inkscape:connector-curvature="0"
           sodipodi:nodetypes="ccccccccc" />
        <path
           style="fill:none;stroke:#ffffff;stroke-width:24.48136711;stroke-linecap:butt;stroke-linejoin:miter;stroke-miterlimit:4;stroke-dasharray:none;stroke-opacity:1"
           d="m -62.57747,-64.373232 c 1.74042,17.148571 -5.08465,26.390532 -12.52014,35.069033"
           id="path854"
           inkscape:connector-curvature="0"
           sodipodi:nodetypes="cc" />
        <path
           sodipodi:nodetypes="cc"
           inkscape:connector-curvature="0"
           id="path856"
           d="m -40.23145,-64.373232 c -1.74042,17.148571 5.08465,26.390532 12.52014,35.069033"
           style="fill:none;stroke:#ffffff;stroke-width:24.48136711;stroke-linecap:butt;stroke-linejoin:miter;stroke-miterlimit:4;stroke-dasharray:none;stroke-opacity:1" />
        <path
           style="fill:#ffffff;fill-opacity:1;stroke:#ffffff;stroke-width:24.48136711;stroke-linecap:butt;stroke-linejoin:miter;stroke-miterlimit:4;stroke-dasharray:none;stroke-opacity:1"
           d="m -100,-14 c 31.33739,-15.728051 61.138541,-15.607054 95,0 L 0,6 C -35.994483,-5.7319681 -70.1828,-3.807408 -105,6 Z"
           id="path858"
           inkscape:connector-curvature="0"
           sodipodi:nodetypes="ccccc" />
      </g>
    </g>
    <g
       style="stroke-width:6.12034178;stroke-miterlimit:4;stroke-dasharray:none"
       transform="matrix(0.8203125,0,0,0.81359692,28,47.719188)"
       id="g4707">
      <path
         style="fill:#000000;stroke-width:6.12034178;stroke-miterlimit:4;stroke-dasharray:none"
         d=""
         id="path3783"
         inkscape:connector-curvature="0" />
      <path
         style="fill:#000000;fill-opacity:1;stroke:#000000;stroke-width:6.12034178;stroke-linecap:butt;stroke-linejoin:round;stroke-miterlimit:4;stroke-dasharray:none;stroke-opacity:1"
         d="m 169.3273,44.809074 c 42.60325,12.254806 54.59653,-23.24008 58.72329,-20.932592 5.30136,2.964269 -1.70784,25.475021 -1.70784,25.475021 0,0 4.45834,-6.295648 5.15089,-3.847505 5.24566,18.543439 -2.93665,23.149751 -7.88918,32.193674 0,0 2.88777,-0.279737 3.46458,0.751656 4.24495,7.590484 -19.10702,23.107062 -36.49998,42.096342 z"
         id="path4688"
         inkscape:connector-curvature="0"
         sodipodi:nodetypes="cscscscc" />
      <path
         sodipodi:nodetypes="cscscscc"
         inkscape:connector-curvature="0"
         id="path4690"
         d="M 85.17972,44.809074 C 30.456608,56.528561 30.131075,21.860302 26.45643,23.876482 c -5.324961,2.921665 1.70784,25.475021 1.70784,25.475021 0,0 -4.45834,-6.295648 -5.15089,-3.847505 -5.24566,18.543439 2.93665,23.149751 7.88918,32.193674 0,0 -2.88777,-0.279737 -3.46458,0.751656 -4.24495,7.590484 19.10702,23.107062 36.49998,42.096342 z"
         style="fill:#000000;fill-opacity:1;stroke:#000000;stroke-width:6.12034178;stroke-linecap:butt;stroke-linejoin:round;stroke-miterlimit:4;stroke-dasharray:none;stroke-opacity:1" />
      <g
         style="stroke-width:6.25640106;stroke-miterlimit:4;stroke-dasharray:none"
         id="g4637"
         transform="matrix(0.69172921,0.69172921,-0.69172921,0.69172921,68.468382,49.185776)">
        <rect
           style="fill:#ef4f32;fill-opacity:1;stroke-width:6.25640106;stroke-miterlimit:4;stroke-dasharray:none"
           ry="25.588522"
           y="-86.062027"
           x="0"
           height="200"
           width="200"
           id="rect3812" />
        <rect
           style="fill:#ffffff;fill-opacity:1;stroke-width:6.25640106;stroke-miterlimit:4;stroke-dasharray:none"
           ry="0.67205513"
           y="-36.062027"
           x="0"
           height="20"
           width="120"
           id="rect4619" />
        <rect
           transform="rotate(-135)"
           id="rect4623"
           width="120"
           height="20"
           x="-141.27341"
           y="50.458649"
           ry="0.67205513"
           style="fill:#ffffff;fill-opacity:1;stroke-width:6.25640106;stroke-miterlimit:4;stroke-dasharray:none" />
        <circle
           r="20"
           style="fill:#ffffff;fill-opacity:1;stroke-width:6.25640106;stroke-miterlimit:4;stroke-dasharray:none"
           cy="-26.062027"
           cx="60"
           id="path4625" />
        <circle
           id="circle4627"
           cx="135"
           cy="-26.062027"
           style="fill:#ffffff;fill-opacity:1;stroke-width:6.25640106;stroke-miterlimit:4;stroke-dasharray:none"
           r="20" />
        <circle
           r="20"
           style="fill:#ffffff;fill-opacity:1;stroke-width:6.25640106;stroke-miterlimit:4;stroke-dasharray:none"
           cy="49.937973"
           cx="135"
           id="circle4629" />
      </g>
      <g
         style="stroke-width:6.12034178;stroke-miterlimit:4;stroke-dasharray:none"
         id="g4686"
         transform="translate(177.49954,20)">
        <path
           sodipodi:nodetypes="ccccccccc"
           inkscape:connector-curvature="0"
           id="path4670"
           d="m -125,26 c 47.621765,-7.115684 95.940701,-7.25966 145,0 L 0,6 -5,-14 -10,-49 c -43.119878,-35.839586 -42.556997,-36.564381 -85,0 l -5,35 -5,20 z"
           style="fill:#a5a5a5;fill-opacity:1;stroke:#000000;stroke-width:6.12034178;stroke-linecap:butt;stroke-linejoin:round;stroke-miterlimit:4;stroke-dasharray:none;stroke-opacity:1" />
        <path
           sodipodi:nodetypes="cc"
           inkscape:connector-curvature="0"
           id="path4672"
           d="m -62.57747,-64.373232 c 1.74042,17.148571 -5.08465,26.390532 -12.52014,35.069033"
           style="fill:none;stroke:#000000;stroke-width:6.12034178;stroke-linecap:butt;stroke-linejoin:miter;stroke-miterlimit:4;stroke-dasharray:none;stroke-opacity:1" />
        <path
           style="fill:none;stroke:#000000;stroke-width:6.12034178;stroke-linecap:butt;stroke-linejoin:miter;stroke-miterlimit:4;stroke-dasharray:none;stroke-opacity:1"
           d="m -40.23145,-64.373232 c -1.74042,17.148571 5.08465,26.390532 12.52014,35.069033"
           id="path4674"
           inkscape:connector-curvature="0"
           sodipodi:nodetypes="cc" />
        <path
           sodipodi:nodetypes="ccccc"
           inkscape:connector-curvature="0"
           id="path4680"
           d="m -100,-14 c 31.33739,-15.728051 61.138541,-15.607054 95,0 L 0,6 C -35.994483,-5.7319681 -70.1828,-3.807408 -105,6 Z"
           style="fill:#ffffff;fill-opacity:1;stroke:#000000;stroke-width:6.12034178;stroke-linecap:butt;stroke-linejoin:miter;stroke-miterlimit:4;stroke-dasharray:none;stroke-opacity:1" />
      </g>
    </g>
  </g>
</svg>
